<svg width="36" height="36" viewBox="0 0 36 36" xmlns="http://www.w3.org/2000/svg">
<g opacity="0.85">
<path d="M32.5293 4.89417C33.2882 4.89417 33.9023 4.28884 33.9023 3.54074C33.9023 2.79265 33.2882 2.18732 32.5293 2.18732C31.7703 2.18732 31.1562 2.79265 31.1562 3.54074C31.1562 4.28884 31.7761 4.89417 32.5293 4.89417ZM32.5293 3.15242C32.7494 3.15242 32.929 3.32945 32.929 3.54645C32.929 3.76346 32.7494 3.94049 32.5293 3.94049C32.3033 3.94049 32.1295 3.76917 32.1295 3.54645C32.1295 3.32374 32.3091 3.15242 32.5293 3.15242Z"/>
<path d="M34.0534 0H5.82813C4.75636 0 3.88156 0.86231 3.88156 1.91878V4.84835H1.94657C0.874799 4.84835 0 5.71066 0 6.76713V30.8261C0 31.8826 0.874799 32.7449 1.94657 32.7449H14.8832V35.5203C14.8832 35.783 15.1033 36 15.3698 36H24.5117C24.7782 36 24.9984 35.783 24.9984 35.5203V32.7449H30.1719C31.2436 32.7449 32.1184 31.8826 32.1184 30.8261V27.8966H34.0534C35.1252 27.8966 36 27.0343 36 25.9778V1.91878C36 0.86231 35.1252 0 34.0534 0ZM4.85484 1.91878C4.85484 1.38769 5.29514 0.959391 5.82813 0.959391H34.0534C34.5922 0.959391 35.0267 1.3934 35.0267 1.91878V6.12754H16.5575L14.3849 3.90609C14.2169 3.73477 13.9852 3.63769 13.7477 3.63769H8.96234C8.4757 3.63769 8.07596 4.03173 8.07596 4.51142V6.12754H4.85484V1.91878ZM1.94657 31.7912C1.40779 31.7912 0.973286 31.3572 0.973286 30.8319V6.76713C0.973286 6.23604 1.41358 5.80774 1.94657 5.80774H3.88156V25.9835C3.88156 27.04 4.75636 27.9023 5.82813 27.9023H16.3952C16.5864 28.2678 16.6733 28.6789 16.6386 29.1015H15.8854C15.3293 29.1015 14.8832 29.547 14.8832 30.0895V31.7912H1.94657ZM19.4599 21.7462C19.5584 21.5749 19.738 21.4664 19.9408 21.4664C20.242 21.4664 20.4854 21.7062 20.4854 22.0032C20.4854 22.1973 20.3811 22.3744 20.2131 22.4714C20.0277 22.58 19.8075 22.5685 19.5816 22.4429C19.5526 22.4258 19.5237 22.4029 19.5121 22.3744C19.3267 22.0831 19.402 21.8547 19.4599 21.7462ZM19.4541 20.5984C19.1007 20.7183 18.7995 20.9524 18.6141 21.2836C18.336 21.7747 18.3708 22.3744 18.6952 22.8883C18.7995 23.0482 18.9385 23.1796 19.1065 23.2767C19.373 23.4251 19.6627 23.5051 19.9466 23.5051C20.2131 23.5051 20.4738 23.4366 20.7055 23.3052C21.169 23.0368 21.4586 22.54 21.4586 22.0089C21.4586 21.3522 21.0241 20.7982 20.4274 20.5984V18.1313L24.7319 25.7893C24.7261 25.7951 24.7203 25.8065 24.7029 25.8122C23.1793 26.2005 22.1828 27.6053 22.2639 29.1015H17.6234C17.7103 27.5996 16.7081 26.1948 15.1555 25.7665L19.4541 18.1313V20.5984ZM24.0251 35.0406H15.8565L15.8854 30.0552H23.9961C24.0135 30.0552 24.0251 30.0666 24.0251 30.0838V35.0406ZM31.1452 30.8261C31.1452 31.3572 30.7049 31.7855 30.1719 31.7855H24.9984V30.0838C24.9984 29.5355 24.5465 29.0958 23.9961 29.0958H23.243C23.2082 28.6732 23.3009 28.2621 23.4863 27.8966H31.1452V30.8261ZM34.0534 26.9429H24.4306C24.5871 26.8572 24.7551 26.783 24.9405 26.7373C25.2475 26.6574 25.4966 26.4461 25.6241 26.1605C25.7457 25.8807 25.7284 25.5666 25.5777 25.2982L20.5954 16.4524C20.468 16.2183 20.2189 16.0698 19.9466 16.0698C19.6685 16.0755 19.4194 16.2126 19.2861 16.4467L14.298 25.2982C14.1474 25.5666 14.1358 25.8864 14.2575 26.1662C14.3791 26.4518 14.6283 26.6574 14.9353 26.7373C15.1207 26.783 15.2829 26.8572 15.4451 26.9429H5.82813C5.28935 26.9429 4.85484 26.5089 4.85484 25.9835V7.08693H8.15707C8.64371 7.08693 9.04345 6.69289 9.04345 6.2132V4.59708H13.7071L15.8796 6.81853C16.0476 6.98985 16.2794 7.08693 16.5169 7.08693H35.0267V25.9778C35.0267 26.5089 34.5922 26.9429 34.0534 26.9429Z"/>
<path d="M29.2158 4.89417C29.9747 4.89417 30.5888 4.28884 30.5888 3.54074C30.5888 2.79265 29.9747 2.18732 29.2158 2.18732C28.4569 2.18732 27.8428 2.79265 27.8428 3.54074C27.8428 4.28884 28.4569 4.89417 29.2158 4.89417ZM29.2158 3.15242C29.4359 3.15242 29.6155 3.32945 29.6155 3.54645C29.6155 3.76346 29.4359 3.94049 29.2158 3.94049C28.9899 3.94049 28.8161 3.76917 28.8161 3.54645C28.8161 3.32374 28.9957 3.15242 29.2158 3.15242Z"/>
<path d="M25.8965 4.89417C26.6554 4.89417 27.2695 4.28884 27.2695 3.54074C27.2695 2.79265 26.6554 2.18732 25.8965 2.18732C25.1375 2.18732 24.5234 2.79265 24.5234 3.54074C24.5234 4.28884 25.1375 4.89417 25.8965 4.89417ZM25.8965 3.15242C26.1166 3.15242 26.2962 3.32945 26.2962 3.54645C26.2962 3.76346 26.1166 3.94049 25.8965 3.94049C25.6705 3.94049 25.4967 3.76917 25.4967 3.54645C25.4967 3.32374 25.6763 3.15242 25.8965 3.15242Z"/>
<path d="M29.3203 11.2672C29.0364 11.547 28.8568 11.9011 28.7873 12.278H21.9801V11.5242C21.9801 11.0102 21.5572 10.5933 21.0358 10.5933H18.8401C18.3187 10.5933 17.8957 11.0102 17.8957 11.5242V12.278H11.0943C11.0306 11.9068 10.851 11.5527 10.5613 11.2615C9.82558 10.5476 8.56842 10.5591 7.85004 11.2672C7.48506 11.627 7.28809 12.1009 7.28809 12.6035C7.28809 13.1117 7.49085 13.5914 7.85004 13.9398C8.21502 14.311 8.70167 14.4994 9.20569 14.4994C9.52433 14.4994 9.84875 14.4252 10.1558 14.271C10.486 14.1054 10.7583 13.8313 10.9205 13.4943C10.9611 13.4087 10.9958 13.323 11.0248 13.2374H15.7464C13.1799 14.4709 11.245 16.7894 10.5729 19.5876H9.81979C9.29838 19.5876 8.87547 20.0045 8.87547 20.5184V22.6828C8.87547 23.1967 9.29838 23.6136 9.81979 23.6136H12.0155C12.5369 23.6136 12.9598 23.1967 12.9598 22.6828V20.5184C12.9598 20.0045 12.5369 19.5876 12.0155 19.5876H11.5752C12.3863 16.5724 14.8368 14.2082 17.9131 13.4772V13.6828C17.9131 14.1967 18.336 14.6136 18.8574 14.6136H21.0531C21.5745 14.6136 21.9975 14.1967 21.9975 13.6828V13.4772C25.0679 14.2082 27.5185 16.5724 28.3354 19.5876H27.9357C27.4143 19.5876 26.9913 20.0045 26.9913 20.5184V22.6828C26.9913 23.1967 27.4143 23.6136 27.9357 23.6136H30.1313C30.6527 23.6136 31.0757 23.1967 31.0757 22.6828V20.5184C31.0757 20.0045 30.6527 19.5876 30.1313 19.5876H29.3377C28.6598 16.7894 26.7248 14.4651 24.1642 13.2374H28.8974C28.9901 13.5 29.1407 13.7399 29.3434 13.9398C29.7084 14.311 30.1951 14.4994 30.6991 14.4994C31.0177 14.4994 31.3422 14.4252 31.6492 14.271C31.9794 14.1054 32.2517 13.8313 32.4139 13.4943C32.7905 12.712 32.6573 11.8611 32.0605 11.2615C31.3016 10.5533 30.0444 10.5591 29.3203 11.2672ZM10.0341 13.0889C9.96462 13.2259 9.84876 13.3459 9.70971 13.4144C9.20569 13.6657 8.77119 13.5058 8.53366 13.2602C8.35407 13.0889 8.25558 12.8547 8.25558 12.6035C8.25558 12.3579 8.35407 12.1238 8.53366 11.941C8.71325 11.764 8.95078 11.6669 9.20569 11.6669C9.45481 11.6669 9.69813 11.764 9.87193 11.9353C10.1732 12.2437 10.2311 12.672 10.0341 13.0889ZM12.0039 22.6542L9.83717 22.6828L9.8082 20.547H11.9749L12.0039 22.6542ZM30.114 22.6542L27.9472 22.6828L27.9183 20.547H30.085L30.114 22.6542ZM18.8748 13.6885L18.8632 12.969C18.8748 12.9176 18.8748 12.8662 18.869 12.8091V12.8033C18.869 12.7862 18.8806 12.7748 18.8806 12.7577C18.8806 12.7291 18.869 12.7063 18.8632 12.6834L18.8459 11.5584H21.0126L21.03 12.6834C21.0242 12.712 21.0126 12.7348 21.0126 12.7634C21.0126 12.7805 21.0184 12.7919 21.0242 12.8091V12.8148C21.0126 12.889 21.0184 12.9575 21.0358 13.0204L21.0473 13.6657L18.8748 13.6885ZM31.5102 13.0889C31.4406 13.2259 31.3248 13.3459 31.1857 13.4144C30.6817 13.6657 30.2472 13.5058 30.0097 13.2602C29.8301 13.0889 29.7316 12.8547 29.7316 12.6035C29.7316 12.3579 29.8301 12.1238 30.0097 11.941C30.1893 11.764 30.4268 11.6669 30.6817 11.6669C30.9308 11.6669 31.1742 11.764 31.3479 11.9353C31.6492 12.2437 31.7071 12.672 31.5102 13.0889Z"/>
</g>
</svg>