<svg width="36" height="40" viewBox="0 0 36 40" xmlns="http://www.w3.org/2000/svg">
<g opacity="0.8">
<path d="M35.1653 20.8971C33.3357 19.0672 31.2206 20.7799 31.2206 20.7799V11.147C31.2206 10.8235 30.9597 10.561 30.6377 10.561C30.3154 10.561 30.0545 10.8235 30.0545 11.147V21.6042C30.0545 21.6042 27.2736 23.8066 26.0783 24.345V7.00051C26.0783 6.19423 26.731 5.5384 27.5336 5.5384H28.5992C29.4017 5.5384 30.0545 6.19423 30.0545 7.00051V8.74826C30.0545 9.07205 30.3154 9.3342 30.6377 9.3342C30.9597 9.3342 31.2206 9.07205 31.2206 8.74826V7.00051C31.2206 5.54816 30.0448 4.36682 28.5992 4.36682H27.5336C26.088 4.36682 24.9118 5.54816 24.9118 7.00051V24.8095C24.564 24.9074 24.2071 24.9739 23.8444 25.009V12.6564C23.8444 11.1967 22.6625 10.0093 21.2099 10.0093H20.1701C18.7175 10.0093 17.5356 11.1967 17.5356 12.6564V18.6263L16.4678 19.1957V17.209C16.4678 15.8949 15.4038 14.8259 14.0961 14.8259H12.5311C11.2231 14.8259 10.1593 15.8949 10.1593 17.209V22.56L8.25504 23.5753L2.90761 25.1107C1.97719 25.3777 1.20017 25.9899 0.720223 26.834C0.239976 27.6784 0.109662 28.6617 0.353279 29.6026L0.951386 31.9146C1.03219 32.2277 1.35053 32.4154 1.66249 32.3342C1.97415 32.2527 2.16127 31.9329 2.08017 31.6195L1.48206 29.3078C1.13516 27.9668 1.90216 26.6179 3.22839 26.2374L8.11743 24.8336L11.792 34.6865C12.0381 35.3463 11.9992 37.2287 10.0554 37.9223L6.36078 38.7655C5.07313 39.0591 3.80432 38.2837 3.472 36.9995L2.72201 34.1C2.64091 33.7869 2.32257 33.5989 2.01091 33.6801C1.69894 33.7615 1.51213 34.0814 1.59293 34.3948L2.34322 37.2946C2.76484 38.9236 4.20528 40 5.80884 40C6.98713 40 10.3139 39.0649 10.3139 39.0649C11.3264 38.8342 12.1897 38.175 12.6821 37.257C13.0885 36.4996 13.2091 35.628 13.0347 34.7976L25.817 31.6537C26.8741 31.3934 27.8777 30.8889 28.7186 30.1946L34.939 25.0597C36.8354 23.3699 35.723 21.4546 35.1653 20.8971ZM20.1701 11.1811H21.2099C22.0194 11.1811 22.678 11.8431 22.678 12.6564V25.0383L18.9979 25.0368C18.6598 25.0338 18.8937 24.8095 18.9122 24.7942L19.972 23.9318C20.9608 23.127 21.6066 22.0082 21.8912 20.6059C22.0719 19.7163 21.7342 18.8258 21.0103 18.282C20.3341 17.7742 19.4645 17.6765 18.702 18.0122V12.6564C18.702 11.8431 19.3606 11.1811 20.1701 11.1811ZM11.3258 17.209C11.3258 16.5413 11.8665 15.9978 12.5311 15.9978H14.0961C14.7607 15.9978 15.3017 16.5413 15.3017 17.209V19.8177L11.3255 21.938V17.209H11.3258ZM34.1987 24.1545L27.978 29.2895C27.2714 29.873 26.4282 30.2969 25.5397 30.5154L12.6632 33.6828L9.20034 24.3984L19.0878 19.1255C19.4897 18.911 19.9474 18.9467 20.3116 19.2204C20.6759 19.4942 20.8393 19.9245 20.7485 20.3719C20.5191 21.5007 20.0109 22.3921 19.2378 23.0211L18.178 23.8839C17.7436 24.2372 17.5836 24.8076 17.7701 25.3371C17.9566 25.8663 18.4383 26.2087 18.9973 26.2087L23.2466 26.2105H23.2496C24.7624 26.2105 26.2162 25.7485 27.4537 24.8742L32.2027 21.519C32.8676 21.0491 33.7628 21.1321 34.3309 21.7162C34.658 22.0519 35.2983 23.0495 34.1987 24.1545V24.1545Z"/>
<path d="M9.55817 35.0618C9.55817 33.7889 8.52752 32.7532 7.26053 32.7532C5.99355 32.7532 4.96289 33.7889 4.96289 35.0618C4.96289 36.3344 5.99355 37.3702 7.26053 37.3702C8.52752 37.3702 9.55817 36.3344 9.55817 35.0618V35.0618ZM6.12933 35.0618C6.12933 34.435 6.63661 33.925 7.26053 33.925C7.88415 33.925 8.39173 34.435 8.39173 35.0618C8.39173 35.6884 7.88446 36.1983 7.26053 36.1983C6.63661 36.1983 6.12933 35.6884 6.12933 35.0618V35.0618Z"/>
<path d="M3.06656 18.397L11.5446 9.81391L13.4516 10.8048C14.1347 11.1597 14.9661 11.0383 15.5202 10.5024L20.1349 6.03947C20.1349 6.03947 20.008 8.33166 21.9293 8.33166C22.9183 8.33166 23.7233 7.52294 23.7233 6.52897V1.80238C23.7233 1.79689 23.723 1.79109 23.723 1.78529C23.7166 0.552067 22.819 0 21.9293 0H17.2656C16.2763 0 15.4716 0.808721 15.4716 1.80238C15.4716 3.78359 17.4785 3.60476 17.4785 3.60476L13.9579 7.00932L12.0233 6.00407C11.3237 5.6403 10.4808 5.77366 9.92551 6.33519L0.519826 15.8576C-0.177004 16.5632 -0.172751 17.7067 0.529546 18.4068C0.867937 18.744 2.02345 19.445 3.06656 18.397ZM1.34758 16.6832L10.7533 7.16069C10.8748 7.03801 11.0698 6.82316 11.4875 7.04503L13.7933 8.24316C14.0154 8.35851 14.2857 8.31915 14.4658 8.14489L19.3297 3.44118C19.501 3.27547 19.5551 3.02156 19.4661 2.80001C19.3771 2.57814 19.1632 2.43318 18.9251 2.43318H17.2656C16.9196 2.43318 16.638 2.15028 16.638 1.80238C16.638 1.45478 16.9196 1.17188 17.2656 1.17188H21.9293C22.1009 1.17188 22.5565 1.17188 22.5565 1.79872C22.5565 1.80391 22.5568 1.80909 22.5568 1.81459V6.52897C22.5568 6.87657 22.2753 7.15947 21.9293 7.15947C21.583 7.15947 21.3014 6.87657 21.3014 6.52897V4.6622C21.3014 4.42721 21.1617 4.21481 20.9466 4.12295C20.7315 4.03079 20.4824 4.07717 20.3139 4.24014L14.7113 9.65827C14.5175 9.84564 14.2265 9.88837 13.9877 9.76416L11.7004 8.5755C11.4741 8.458 11.198 8.50164 11.0184 8.68322L2.23881 17.5715C1.85607 17.956 1.46939 17.693 1.35092 17.5749C1.10548 17.3298 1.10396 16.9297 1.34758 16.6832V16.6832Z"/>
</g>
</svg>